<svg id="Layer_1" data-name="Layer 1" xmlns="http://www.w3.org/2000/svg" viewBox="0 0 57 24"><defs><style>.cls-1{fill:#3a3a3a;stroke:#4c4c4c;stroke-miterlimit:10;}.cls-2{fill:#e6e6e6;}</style></defs><title>electro</title><g id="electroD"><rect id="butE" class="cls-1" x="0.5" y="0.5" width="56" height="23"/><path class="cls-2" d="M6.85,9.17h4.72v2.1H9.41v.89h2.12v2H9.41v.92h2.24v2.1H6.85Zm3.92,7v-.28H8.37V13.3h2.28V13H8.37V10.42h2.4v-.29H8.05v6.08Z"/><path class="cls-2" d="M12.37,9.17H15v5.9h2.21v2.1H12.37Zm4.2,7v-.28H13.89v-5.8h-.32v6.08Z"/><path class="cls-2" d="M17.67,9.17h4.71v2.1H20.22v.89h2.13v2H20.22v.92h2.25v2.1h-4.8Zm3.91,7v-.28h-2.4V13.3h2.28V13H19.18V10.42h2.4v-.29H18.87v6.08Z"/><path class="cls-2" d="M22.83,13.18a4.42,4.42,0,0,1,.33-1.74,4.26,4.26,0,0,1,.91-1.32,4.12,4.12,0,0,1,1.35-.85A4.62,4.62,0,0,1,27.05,9a5,5,0,0,1,1.22.13,6.64,6.64,0,0,1,.92.3,4.47,4.47,0,0,1,.76.42l-1.26,2.22a2.78,2.78,0,0,0-.42-.28,4.13,4.13,0,0,0-.48-.18,2.11,2.11,0,0,0-.64-.09,1.73,1.73,0,0,0-.69.13,1.7,1.7,0,0,0-.54.36,1.64,1.64,0,0,0-.37.53,1.65,1.65,0,0,0-.13.66,1.44,1.44,0,0,0,.14.65,1.68,1.68,0,0,0,.37.54,1.85,1.85,0,0,0,.57.36,2,2,0,0,0,.71.13,2.07,2.07,0,0,0,.68-.1,2.15,2.15,0,0,0,.5-.21,1.94,1.94,0,0,0,.42-.32l1.26,2.22a3.16,3.16,0,0,1-.76.47,6.31,6.31,0,0,1-.93.31,5,5,0,0,1-3-.16,3.93,3.93,0,0,1-2.27-2.18A4.34,4.34,0,0,1,22.83,13.18Zm1.51,0a2.73,2.73,0,0,1,.2-1.08,2.57,2.57,0,0,1,.55-.88,2.72,2.72,0,0,1,.88-.59,3,3,0,0,1,1.15-.21,3.13,3.13,0,0,1,.56,0,2.74,2.74,0,0,1,.41.1,1.27,1.27,0,0,1,.35.15l.17-.29-.41-.16-.47-.11a3.67,3.67,0,0,0-.61,0,3.28,3.28,0,0,0-1.17.21,3,3,0,0,0-1,.62,3.11,3.11,0,0,0-.69,1A3.06,3.06,0,0,0,24,13.18a3.23,3.23,0,0,0,.24,1.27,2.93,2.93,0,0,0,.68,1A3,3,0,0,0,26,16a3.3,3.3,0,0,0,1.22.22,3.2,3.2,0,0,0,.65-.06,3.4,3.4,0,0,0,.49-.13,3.14,3.14,0,0,0,.41-.19l-.17-.29a1.51,1.51,0,0,1-.36.18,2,2,0,0,1-.43.12,2.55,2.55,0,0,1-.59.06A3,3,0,0,1,26,15.72a2.52,2.52,0,0,1-.89-.59,2.55,2.55,0,0,1-.56-.87A2.8,2.8,0,0,1,24.34,13.18Z"/><path class="cls-2" d="M31.61,11.27H30.13V9.17h5.6v2.1H34.25v5.9H31.61Zm1.48,4.94V10.42H34.8v-.29H31.06v.29h1.71v5.79Z"/><path class="cls-2" d="M36.15,9.17h2.76a5,5,0,0,1,1.42.2,3.49,3.49,0,0,1,1.13.6,2.79,2.79,0,0,1,.75,1,3.18,3.18,0,0,1,.27,1.34,2.59,2.59,0,0,1-.17,1,3,3,0,0,1-.37.7,2.65,2.65,0,0,1-.54.52l1.5,2.64h-3l-1.2-2v2H36.15Zm2.49,5.22a3.91,3.91,0,0,0,.91-.1l1.14,1.92h.38l-1.2-2a2.31,2.31,0,0,0,1-.7,1.94,1.94,0,0,0,.38-1.23,2.09,2.09,0,0,0-.2-.93,2,2,0,0,0-.56-.66,2.48,2.48,0,0,0-.83-.41,3.86,3.86,0,0,0-1-.14H37.35v6.08h.31V14.39Zm-1-.29V10.42h1a2.72,2.72,0,0,1,1.71.48A1.63,1.63,0,0,1,41,12.27a1.62,1.62,0,0,1-.62,1.36,2.78,2.78,0,0,1-1.71.47Zm1-1h.13a1.38,1.38,0,0,0,.78-.21.74.74,0,0,0,.32-.68.77.77,0,0,0-.32-.69,1.46,1.46,0,0,0-.78-.2H38.7Z"/><path class="cls-2" d="M42.9,13.18a4.06,4.06,0,0,1,.33-1.63,4.16,4.16,0,0,1,.9-1.34,4.27,4.27,0,0,1,1.34-.9,4.19,4.19,0,0,1,3.26,0A4.19,4.19,0,0,1,51,11.55a4.19,4.19,0,0,1,0,3.26,4.27,4.27,0,0,1-.9,1.34,4.16,4.16,0,0,1-1.34.9,4.19,4.19,0,0,1-3.26,0,4.19,4.19,0,0,1-2.24-2.24A4.09,4.09,0,0,1,42.9,13.18Zm1.13,0a3,3,0,0,0,.24,1.19A3.08,3.08,0,0,0,45.91,16a3,3,0,0,0,1.19.24A3,3,0,0,0,48.3,16a3.09,3.09,0,0,0,1-.66,3.13,3.13,0,0,0,.66-1,3,3,0,0,0,.24-1.19,3,3,0,0,0-.24-1.2,3.14,3.14,0,0,0-1.63-1.63,3,3,0,0,0-1.2-.24,3,3,0,0,0-1.19.24,3.13,3.13,0,0,0-1,.66,3.09,3.09,0,0,0-.66,1A3,3,0,0,0,44,13.18Zm3.07,2.76A2.56,2.56,0,0,1,46,15.72a2.74,2.74,0,0,1-1.47-1.47,2.56,2.56,0,0,1-.22-1.07,2.61,2.61,0,0,1,.22-1.08,2.73,2.73,0,0,1,.59-.87,3,3,0,0,1,.88-.6,2.72,2.72,0,0,1,1.07-.21,2.77,2.77,0,0,1,1.08.21,2.93,2.93,0,0,1,1.47,1.47,2.77,2.77,0,0,1,.21,1.08,2.72,2.72,0,0,1-.21,1.07,3,3,0,0,1-.6.88,2.73,2.73,0,0,1-.87.59A2.61,2.61,0,0,1,47.1,15.94Zm-1.68-2.76a1.75,1.75,0,0,0,.13.65,1.65,1.65,0,0,0,.9.9,1.75,1.75,0,0,0,.65.13,1.85,1.85,0,0,0,.66-.13,1.77,1.77,0,0,0,.53-.36,1.82,1.82,0,0,0,.36-.54,1.57,1.57,0,0,0,.13-.65,1.65,1.65,0,0,0-.13-.66,1.71,1.71,0,0,0-.89-.89,1.65,1.65,0,0,0-.66-.13,1.57,1.57,0,0,0-.65.13,1.82,1.82,0,0,0-.54.36,1.77,1.77,0,0,0-.36.53A1.85,1.85,0,0,0,45.42,13.18Z"/></g></svg>