<svg id="Layer_1" data-name="Layer 1" xmlns="http://www.w3.org/2000/svg" viewBox="0 0 57 24"><defs><style>.cls-1{fill:#3a3a3a;stroke:#4c4c4c;stroke-miterlimit:10;}.cls-2{fill:#e6e6e6;}</style></defs><title>funky</title><g id="funkyD"><rect id="butF" class="cls-1" x="0.5" y="0.5" width="56" height="23"/><path class="cls-2" d="M12.1,7.77h4.72v2.1H14.66v.89h2.12v2H14.66v3H12.1Zm1.51,7.05V11.9h2.28v-.29H13.61V9H16V8.73H13.3v6.09Z"/><path class="cls-2" d="M20.69,16a4.54,4.54,0,0,1-1.37-.19,2.86,2.86,0,0,1-1-.58,2.52,2.52,0,0,1-.67-1,3.83,3.83,0,0,1-.23-1.38V7.77h2.56v5a1,1,0,0,0,.17.65.72.72,0,0,0,.58.22.71.71,0,0,0,.58-.22,1,1,0,0,0,.18-.65v-5H24v5.09a3.62,3.62,0,0,1-.24,1.38,2.41,2.41,0,0,1-.67,1,2.82,2.82,0,0,1-1.05.58A4.49,4.49,0,0,1,20.69,16Zm0-1.44a1.57,1.57,0,0,1-1.8-1.76v-4h-.31v4a2,2,0,0,0,.55,1.54,2.11,2.11,0,0,0,1.56.53,2.13,2.13,0,0,0,1.57-.53,2,2,0,0,0,.56-1.54v-4h-.33v4A1.57,1.57,0,0,1,20.69,14.54Z"/><path class="cls-2" d="M24.82,7.77h2.1l2.21,3.09V7.77h2.51v8H29.52l-2.19-3.07v3.07H24.82Zm1.43,7.05V9.27l4,5.55h.31V8.73h-.31v5.55l-4-5.55h-.31v6.09Z"/><path class="cls-2" d="M32.48,7.77h2.59V9.62l1.51-1.85h3.13l-2.82,3.66,3,4.35H36.77l-1.7-2.47v2.47H32.48ZM34,14.82V13.2l1.25-1.55,2.18,3.17h.37L35.45,11.4,37.6,8.73h-.38l-3.23,4v-4h-.31v6.09Z"/><path class="cls-2" d="M42.34,12.33,39.85,7.77H42.7l.92,1.7.92-1.7h2.84L44.9,12.33v3.45H42.34Zm1.44,2.49V12l1.75-3.22h-.37l-1.54,2.85L42.08,8.73h-.36L43.46,12v2.87Z"/></g></svg>