<svg id="Layer_1" data-name="Layer 1" xmlns="http://www.w3.org/2000/svg" viewBox="0 0 57 24"><defs><style>.cls-1{fill:#3a3a3a;stroke:#4c4c4c;stroke-miterlimit:10;}.cls-2{fill:#e6e6e6;}</style></defs><title>Artboard 1</title><g id="HiphopD"><rect id="butH" class="cls-1" x="0.5" y="0.5" width="56" height="23"/><path class="cls-2" d="M9.36,7.57h2.56v2.72h1.43V7.57h2.57v8H13.35v-3H11.92v3H9.36Zm1.52,7v-3H14.4v3h.32V8.53H14.4v2.76H10.88V8.53h-.32v6.08Z"/><path class="cls-2" d="M16.76,7.57h2.71v8H16.76Zm1.51,7V8.53H18v6.08Z"/><path class="cls-2" d="M26.54,10.61A3.13,3.13,0,0,1,26.25,12a2.54,2.54,0,0,1-.79,1,3.32,3.32,0,0,1-1.16.52,5.52,5.52,0,0,1-1.44.17v1.91H20.31v-8h2.55a6,6,0,0,1,1.44.16,3.53,3.53,0,0,1,1.16.53,2.58,2.58,0,0,1,.79.94A3.19,3.19,0,0,1,26.54,10.61Zm-1.17,0a2.2,2.2,0,0,0-.18-.93A1.69,1.69,0,0,0,24.66,9a2.42,2.42,0,0,0-.79-.38,4.05,4.05,0,0,0-1-.12H21.51v6.08h.31V12.7h1a4.05,4.05,0,0,0,1-.12,2.42,2.42,0,0,0,.79-.38,1.77,1.77,0,0,0,.53-.65A2.25,2.25,0,0,0,25.37,10.61Zm-.33,0a1.75,1.75,0,0,1-.19.87,1.4,1.4,0,0,1-.47.55,1.94,1.94,0,0,1-.69.29,3.7,3.7,0,0,1-.83.09h-1V8.81h1a3.7,3.7,0,0,1,.83.09,2,2,0,0,1,.69.3,1.33,1.33,0,0,1,.47.55A1.74,1.74,0,0,1,25,10.61Zm-2.18.89H23a1,1,0,0,0,.73-.23.92.92,0,0,0,.22-.66A.9.9,0,0,0,23.7,10,1,1,0,0,0,23,9.73h-.11Z"/><path class="cls-2" d="M27.13,7.57h2.56v2.72h1.43V7.57h2.57v8H31.12v-3H29.69v3H27.13Zm1.52,7v-3h3.52v3h.32V8.53h-.32v2.76H28.65V8.53h-.32v6.08Z"/><path class="cls-2" d="M34.35,11.57a4.09,4.09,0,0,1,.33-1.63,4.27,4.27,0,0,1,.9-1.34,4.16,4.16,0,0,1,1.34-.9,4.19,4.19,0,0,1,3.26,0,4.19,4.19,0,0,1,2.24,2.24,4.09,4.09,0,0,1,.33,1.63,4.14,4.14,0,0,1-.33,1.64,4.22,4.22,0,0,1-.9,1.33,4.27,4.27,0,0,1-1.34.9,4.19,4.19,0,0,1-3.26,0,4.16,4.16,0,0,1-1.34-.9,4.22,4.22,0,0,1-.9-1.33A4.14,4.14,0,0,1,34.35,11.57Zm1.13,0a3,3,0,0,0,.23,1.2,3.16,3.16,0,0,0,.67,1,3,3,0,0,0,1,.66,3,3,0,0,0,1.2.24,3,3,0,0,0,1.19-.24,3.08,3.08,0,0,0,1.64-1.64,3.1,3.1,0,0,0,0-2.39,3.08,3.08,0,0,0-1.64-1.64,3,3,0,0,0-1.19-.24,3,3,0,0,0-1.2.24,3,3,0,0,0-1,.66,3.16,3.16,0,0,0-.67,1A3,3,0,0,0,35.48,11.57Zm3.07,2.76A2.77,2.77,0,0,1,36,10.5a2.93,2.93,0,0,1,.6-.88,2.74,2.74,0,0,1,3-.59,2.78,2.78,0,0,1,.88.59,2.89,2.89,0,0,1,.59.88,2.74,2.74,0,0,1-.59,3,2.81,2.81,0,0,1-.88.6A2.72,2.72,0,0,1,38.55,14.33Zm-1.68-2.76a1.62,1.62,0,0,0,.13.66,1.71,1.71,0,0,0,.89.89,1.62,1.62,0,0,0,.66.13,1.57,1.57,0,0,0,.65-.13,1.77,1.77,0,0,0,.53-.36,1.47,1.47,0,0,0,.36-.53,1.63,1.63,0,0,0,.14-.66,1.58,1.58,0,0,0-.14-.65A1.71,1.71,0,0,0,39.2,10a1.58,1.58,0,0,0-.65-.14,1.63,1.63,0,0,0-.66.14,1.47,1.47,0,0,0-.53.36,1.77,1.77,0,0,0-.36.53A1.57,1.57,0,0,0,36.87,11.57Z"/><path class="cls-2" d="M49.63,10.61A3.14,3.14,0,0,1,49.35,12a2.63,2.63,0,0,1-.79,1,3.32,3.32,0,0,1-1.16.52,5.57,5.57,0,0,1-1.44.17v1.91H43.41v-8H46a6.05,6.05,0,0,1,1.44.16,3.53,3.53,0,0,1,1.16.53,2.69,2.69,0,0,1,.79.94A3.2,3.2,0,0,1,49.63,10.61Zm-1.16,0a2.06,2.06,0,0,0-.19-.93A1.58,1.58,0,0,0,47.76,9a2.38,2.38,0,0,0-.8-.38,3.92,3.92,0,0,0-1-.12H44.61v6.08h.31V12.7h1a3.92,3.92,0,0,0,1-.12,2.38,2.38,0,0,0,.8-.38,1.65,1.65,0,0,0,.52-.65A2.1,2.1,0,0,0,48.47,10.61Zm-.34,0a1.87,1.87,0,0,1-.18.87,1.51,1.51,0,0,1-.48.55,1.94,1.94,0,0,1-.69.29,3.62,3.62,0,0,1-.82.09h-1V8.81h1a3.62,3.62,0,0,1,.82.09,2,2,0,0,1,.69.3,1.43,1.43,0,0,1,.48.55A1.86,1.86,0,0,1,48.13,10.61ZM46,11.5h.11a1,1,0,0,0,.73-.23,1,1,0,0,0,.22-.66A.94.94,0,0,0,46.8,10a1,1,0,0,0-.73-.23H46Z"/></g></svg>