<svg id="Layer_1" data-name="Layer 1" xmlns="http://www.w3.org/2000/svg" viewBox="0 0 57 24"><defs><style>.cls-1{fill:#3a3a3a;stroke:#4c4c4c;stroke-miterlimit:10;}.cls-2{fill:#e6e6e6;}

	#Layer_1:hover .cls-2{ 
	fill: black;
	}
</style>
</defs><title>rock</title><g id="rockD"><rect id="butR" class="cls-1" x="0.5" y="0.5" width="56" height="23"/><path class="cls-2" d="M12.63,8.58h2.76a4.64,4.64,0,0,1,1.42.21,3.06,3.06,0,0,1,1.13.6,2.7,2.7,0,0,1,.75,1A3.11,3.11,0,0,1,19,11.71a2.88,2.88,0,0,1-.16,1,3.39,3.39,0,0,1-.38.69,2.71,2.71,0,0,1-.54.53l1.5,2.64h-3l-1.2-2v2H12.63Zm2.49,5.22a4.63,4.63,0,0,0,.92-.09l1.14,1.92h.37l-1.2-2a2.23,2.23,0,0,0,1-.7,1.86,1.86,0,0,0,.38-1.23A1.9,1.9,0,0,0,17,10.09a2.39,2.39,0,0,0-.83-.41,3.86,3.86,0,0,0-1.05-.14H13.83v6.09h.31V13.8Zm-1-.28V9.83h1a2.72,2.72,0,0,1,1.71.48,1.62,1.62,0,0,1,.62,1.37A1.59,1.59,0,0,1,16.83,13a2.72,2.72,0,0,1-1.71.48Zm1-1h.14a1.45,1.45,0,0,0,.77-.2.77.77,0,0,0,.32-.69.74.74,0,0,0-.32-.68,1.36,1.36,0,0,0-.77-.21h-.14Z"/><path class="cls-2" d="M19.44,12.59A4.09,4.09,0,0,1,19.77,11,4.19,4.19,0,0,1,22,8.72a4.09,4.09,0,0,1,1.63-.33,4.14,4.14,0,0,1,1.64.33,4.22,4.22,0,0,1,1.33.9,4.27,4.27,0,0,1,.9,1.34,4.09,4.09,0,0,1,.33,1.63,4.14,4.14,0,0,1-.33,1.64,4.24,4.24,0,0,1-2.23,2.23,4.14,4.14,0,0,1-1.64.33A4.09,4.09,0,0,1,22,16.46a4.27,4.27,0,0,1-1.34-.9,4.22,4.22,0,0,1-.9-1.33A4.14,4.14,0,0,1,19.44,12.59Zm1.13,0a3,3,0,0,0,.24,1.2,3.09,3.09,0,0,0,.66,1,3.07,3.07,0,0,0,4.35,0,3.09,3.09,0,0,0,.66-1,3.1,3.1,0,0,0,0-2.39,3.08,3.08,0,0,0-1.64-1.64,3.1,3.1,0,0,0-2.39,0,3.08,3.08,0,0,0-1.64,1.64A3,3,0,0,0,20.57,12.59Zm3.07,2.76a2.72,2.72,0,0,1-1.07-.21,3.12,3.12,0,0,1-.88-.6,2.73,2.73,0,0,1-.59-.87,2.78,2.78,0,0,1-.22-1.08,2.73,2.73,0,0,1,.22-1.07,2.74,2.74,0,0,1,1.47-1.47,2.74,2.74,0,0,1,2.15,0,2.73,2.73,0,0,1,.87.59,2.93,2.93,0,0,1,.6.88,2.72,2.72,0,0,1,.21,1.07,2.64,2.64,0,0,1-.81,1.95,2.94,2.94,0,0,1-.87.6A2.74,2.74,0,0,1,23.64,15.35ZM22,12.59a1.63,1.63,0,0,0,.14.66,1.47,1.47,0,0,0,.36.53,1.77,1.77,0,0,0,.53.36,1.57,1.57,0,0,0,.65.13,1.62,1.62,0,0,0,.66-.13,1.71,1.71,0,0,0,.89-.89,1.62,1.62,0,0,0,.13-.66,1.57,1.57,0,0,0-.13-.65,1.82,1.82,0,0,0-.36-.54A1.77,1.77,0,0,0,24.3,11a1.8,1.8,0,0,0-.66-.13A1.75,1.75,0,0,0,23,11a1.77,1.77,0,0,0-.53.36,1.51,1.51,0,0,0-.36.54A1.58,1.58,0,0,0,22,12.59Z"/><path class="cls-2" d="M28.32,12.59a4.38,4.38,0,0,1,.34-1.73,3.89,3.89,0,0,1,2.26-2.17,4.41,4.41,0,0,1,1.63-.3,5.64,5.64,0,0,1,1.22.13,6.06,6.06,0,0,1,.91.3,4.22,4.22,0,0,1,.77.42l-1.26,2.22-.42-.27a3.2,3.2,0,0,0-.48-.19,2.17,2.17,0,0,0-.65-.09A1.91,1.91,0,0,0,32,11a1.87,1.87,0,0,0-.55.36,1.82,1.82,0,0,0-.36.54,1.57,1.57,0,0,0-.13.65,1.62,1.62,0,0,0,.13.66,1.73,1.73,0,0,0,.95.89,1.78,1.78,0,0,0,.7.13,2.4,2.4,0,0,0,.69-.09,2.65,2.65,0,0,0,.5-.22,1.9,1.9,0,0,0,.42-.31l1.26,2.22a3.75,3.75,0,0,1-.77.47,7,7,0,0,1-.92.31,5.1,5.1,0,0,1-1.24.14,4.78,4.78,0,0,1-1.72-.3,4.09,4.09,0,0,1-1.37-.86,3.73,3.73,0,0,1-.9-1.33A4.27,4.27,0,0,1,28.32,12.59Zm1.52,0A3,3,0,0,1,30,11.51a2.71,2.71,0,0,1,.56-.87,2.48,2.48,0,0,1,.88-.59,2.84,2.84,0,0,1,1.15-.22,3.15,3.15,0,0,1,.56.05,1.89,1.89,0,0,1,.41.1,1.42,1.42,0,0,1,.35.14l.17-.29-.41-.15a4.11,4.11,0,0,0-.47-.11,3.58,3.58,0,0,0-.61-.05,3.08,3.08,0,0,0-1.17.22,3,3,0,0,0-1.67,1.59,3.05,3.05,0,0,0-.26,1.26,3.2,3.2,0,0,0,.25,1.27,2.79,2.79,0,0,0,.68,1,3.06,3.06,0,0,0,1,.62,3.52,3.52,0,0,0,1.22.22,2.59,2.59,0,0,0,.65-.07,3.8,3.8,0,0,0,.49-.13,2.22,2.22,0,0,0,.41-.19L34.06,15a1.51,1.51,0,0,1-.36.18,2.79,2.79,0,0,1-.43.13,3.42,3.42,0,0,1-.59,0,3.19,3.19,0,0,1-1.19-.21,2.66,2.66,0,0,1-.89-.59,2.62,2.62,0,0,1-.57-.88A2.92,2.92,0,0,1,29.84,12.59Z"/><path class="cls-2" d="M35.87,8.58h2.59v1.85L40,8.58h3.13l-2.82,3.66,3,4.35H40.17l-1.71-2.47v2.47H35.87Zm1.51,7.05V14l1.25-1.55,2.19,3.17h.37l-2.34-3.42L41,9.54h-.39l-3.23,4v-4h-.31v6.09Z"/></g></svg>